<svg xmlns="http://www.w3.org/2000/svg" viewBox="0 0 128 128"><defs><clipPath id="c"><circle cx="64" cy="64" r="58"/></clipPath></defs><circle cx="64" cy="64" r="58" fill="#e8eef3"/><g clip-path="url(#c)"><path d="M0 128V92c14 0 18-30 32-30s18 22 32 22 20-44 34-44 16 30 30 30v58Z" fill="#7db0bc"/><path d="M0 128v-24c16 0 20-18 36-18s20 14 34 14 18-24 32-24 14 16 26 16v36Z" fill="#4c7bb0"/><path d="M0 128v-12c18 0 24-10 40-10s22 8 36 8 16-12 28-12 12 8 24 8v18Z" fill="#35456e"/></g><circle cx="64" cy="64" r="58" fill="none" stroke="#35456e" stroke-width="5"/></svg>
